<?xml version="1.0" encoding="iso-8859-1"?>
<!-- Generator: Adobe Illustrator 18.0.0, SVG Export Plug-In . SVG Version: 6.00 Build 0)  -->
<!DOCTYPE svg PUBLIC "-//W3C//DTD SVG 1.1//EN" "http://www.w3.org/Graphics/SVG/1.1/DTD/svg11.dtd">
<svg xmlns="http://www.w3.org/2000/svg" xmlns:xlink="http://www.w3.org/1999/xlink" version="1.1" id="Capa_1" x="0px" y="0px" viewBox="0 0 235.383 235.383" style="enable-background:new 0 0 235.383 235.383;" xml:space="preserve" width="512px" height="512px">
<path d="M235.383,111.604H0v91.087h235.383V111.604z M125.649,175.904h-15.916v-37.512h15.916V175.904z M164.52,175.904h-15.915  v-37.512h15.915V175.904z M203.391,175.904h-15.915v-37.512h15.915V175.904z M117.691,67.783c16.371,0,31.761,6.375,43.337,17.95  l-14.143,14.143c-7.798-7.798-18.166-12.093-29.194-12.093s-21.396,4.295-29.194,12.093L74.354,85.733  C85.93,74.158,101.321,67.783,117.691,67.783z M171.7,75.063c-14.425-14.427-33.606-22.371-54.009-22.371  c-20.402,0-39.583,7.944-54.008,22.371L49.541,60.92c18.203-18.203,42.406-28.229,68.15-28.229  c25.746,0,49.949,10.025,68.151,28.229L171.7,75.063z" fill="#FFFFFF"/>
<g>
</g>
<g>
</g>
<g>
</g>
<g>
</g>
<g>
</g>
<g>
</g>
<g>
</g>
<g>
</g>
<g>
</g>
<g>
</g>
<g>
</g>
<g>
</g>
<g>
</g>
<g>
</g>
<g>
</g>
</svg>
