<?xml version="1.0" encoding="iso-8859-1"?>
<!-- Generator: Adobe Illustrator 17.1.0, SVG Export Plug-In . SVG Version: 6.00 Build 0)  -->
<!DOCTYPE svg PUBLIC "-//W3C//DTD SVG 1.1//EN" "http://www.w3.org/Graphics/SVG/1.1/DTD/svg11.dtd">
<svg xmlns="http://www.w3.org/2000/svg" xmlns:xlink="http://www.w3.org/1999/xlink" version="1.1" id="Capa_1" x="0px" y="0px" viewBox="0 0 367.021 367.021" style="enable-background:new 0 0 367.021 367.021;" xml:space="preserve" width="512px" height="512px">
<g>
	<polygon points="223.419,136.658 183.511,176.566 143.603,136.658 115.8,164.461 155.708,204.369 115.8,244.277 143.603,272.081    183.511,232.172 223.419,272.081 251.222,244.277 211.313,204.369 251.222,164.461  " fill="#FFFFFF"/>
	<path d="M274.522,36.163h-22.087V20c0-11.028-8.972-20-20-20h-97.85c-11.028,0-20,8.972-20,20v16.163H92.499   c-16.542,0-30,13.458-30,30v270.858c0,16.542,13.458,30,30,30h182.023c16.542,0,30-13.458,30-30V66.163   C304.522,49.621,291.064,36.163,274.522,36.163z M92.499,337.021V66.163h182.023l0.003,270.858H92.499z" fill="#FFFFFF"/>
</g>
<g>
</g>
<g>
</g>
<g>
</g>
<g>
</g>
<g>
</g>
<g>
</g>
<g>
</g>
<g>
</g>
<g>
</g>
<g>
</g>
<g>
</g>
<g>
</g>
<g>
</g>
<g>
</g>
<g>
</g>
</svg>
